PathFileType	4	(X/Y/Z)	C:\Users\WrightLab\Desktop\Jo\P1_boxCal32.trc
DataRate	CameraRate	NumFrames	NumMarkers	Units	OrigDataRate	OrigDataStartFrame	OrigNumFrames
100.00	100.00	       17	19	mm	100.00	277	       737
Frame#	Time	Headset_Front			Headset_Back			Headset_Left			Headset_Right			Left_Shoulder			Right_Shoulder			Sternum			C7			Left Elbow			Right Elbow			Left Wrist			Right Wrist			Left ASIS			Right ASIS			S2			Left Knee			Right Knee			Left Ankle			Right Ankle			
		X1	Y1	Z1	X2	Y2	Z2	X3	Y3	Z3	X4	Y4	Z4	X5	Y5	Z5	X6	Y6	Z6	X7	Y7	Z7	X8	Y8	Z8	X9	Y9	Z9	X10	Y10	Z10	X11	Y11	Z11	X12	Y12	Z12	X13	Y13	Z13	X14	Y14	Z14	X15	Y15	Z15	X16	Y16	Z16	X17	Y17	Z17	X18	Y18	Z18	X19	Y19	Z19	

277	2.760	-742.25360	1337.01648	494.79346	-870.08582	1514.00427	712.83795	-913.89899	1424.11597	575.55145	-693.56940	1400.44604	624.34125	-1040.46899	1255.15210	659.24994	-671.63293	1266.54517	767.23120				-900.75549	1288.01233	819.68884	-1094.52319	931.50098	661.79858	-612.67273	1005.07788	877.06311	-950.64441	846.06726	493.23923	-546.87671	761.85638	797.05878				-697.82739	869.55743	651.85211	-912.93726	898.96204	903.14020	-968.26624	464.88605	587.04279	-683.04333	438.98178	810.61041	-948.41730	90.74406	556.69055				
278	2.770	-741.01984	1338.03015	486.15027	-871.25586	1514.51501	704.28198	-913.55676	1424.45935	566.53302	-693.22681	1401.73840	616.93530	-1039.01355	1255.42993	648.93805	-671.39319	1268.44470	762.57001	-798.74957	1152.75049	598.94781	-900.52362	1287.71094	810.12384	-1093.08813	932.14111	649.79059	-614.57709	1007.91473	872.54370	-947.30377	846.23755	482.83774	-545.85956	764.09290	795.88263				-696.75824	871.32617	642.75336	-915.36926	901.57202	894.49500	-967.72302	467.33694	577.47632	-678.77380	438.61548	793.56262	-947.89081	89.90232	554.55646				
279	2.780	-739.40448	1338.98315	479.08160	-871.38330	1514.68176	695.50977	-912.93884	1424.94434	557.49396	-692.98975	1402.57471	611.09167	-1038.47144	1256.05737	637.66736	-671.54633	1269.89539	755.00214	-797.53766	1153.37488	589.97119	-902.61182	1289.16138	801.41235	-1091.60388	933.05609	637.69366	-615.24725	1010.10931	866.22192	-944.91705	847.08307	472.44559	-544.31580	765.78400	795.32825				-696.28259	872.69708	634.55817	-913.92255	900.87885	884.27686	-967.58124	468.03793	569.47656	-675.54993	439.14197	777.94318	-947.32617	88.51080	553.60101				
280	2.790	-737.62463	1339.27966	471.36774	-872.99799	1515.09631	687.64795	-912.33331	1424.95020	548.78650	-692.66443	1403.91467	601.80243	-1036.92725	1256.44238	627.38300	-672.26678	1271.74255	747.93323				-902.15704	1288.70825	792.12354	-1090.16406	934.17474	625.60638	-616.46558	1012.45038	860.97192	-942.44220	847.91602	461.94681	-542.96277	768.07562	793.75665				-695.44958	873.78741	626.13965	-914.16669	901.44836	874.81793	-967.05780	468.25543	563.01068	-670.05103	439.66864	760.20587	-946.45062	87.58112	553.07965				
281	2.800	-736.45801	1340.21582	464.00479	-872.03876	1514.16602	679.01166	-911.67859	1424.59338	540.43341	-694.54852	1403.05847	588.72205	-1035.63245	1256.97546	616.62915	-672.34576	1272.54626	740.30627	-795.42145	1155.54163	574.08002	-904.06183	1290.09058	783.93604	-1088.88708	935.47974	613.92841	-616.05389	1015.14197	854.81665	-939.02557	848.59631	451.74213	-542.62634	770.12061	792.77844				-694.51709	875.49670	616.95099	-914.96661	902.16876	866.04425	-967.36914	468.71603	555.67834	-664.72540	440.50790	744.82526	-945.81415	87.47427	552.59509				
282	2.810	-734.85291	1340.45691	456.81549	-873.12091	1514.44812	671.22687	-910.73334	1424.58337	532.11627	-693.57251	1403.48474	583.27179	-1034.17517	1258.33386	606.19635	-672.32672	1273.89258	733.28040	-793.18890	1156.22290	566.29852	-903.51520	1289.74207	775.17444	-1087.59705	936.35236	601.94897	-616.26111	1016.90594	849.25201	-935.35431	849.44220	441.23715	-541.15192	772.39642	792.16431				-693.60150	876.61560	609.32465	-916.10059	902.66681	857.26251	-967.60150	468.42438	548.41260	-656.23138	443.16974	727.43390	-945.02539	87.57351	552.22839				
283	2.820	-733.43506	1341.18054	448.99783	-873.21588	1515.10864	663.10065	-910.06445	1424.03735	523.95996	-690.14459	1406.10645	581.29816	-1032.59595	1258.99500	595.95184	-672.25659	1274.59106	726.99524				-905.30066	1291.31213	767.52362	-1086.00952	937.06793	589.71069	-616.61829	1018.44299	843.66998	-932.42316	851.15662	430.96762	-539.73065	773.91113	790.53143	-867.61401	873.68243	506.33630	-692.99945	876.58661	603.45996	-916.86072	902.55908	848.29865	-967.68475	468.40948	541.35229	-648.38257	445.67865	711.90692	-944.41815	87.72630	552.05829				
284	2.830	-732.47614	1342.03247	440.44449	-871.73169	1514.93420	654.35303	-908.77728	1424.10303	515.49835	-689.12488	1407.14661	572.54034	-1031.02368	1259.94128	585.39984	-671.60602	1275.36743	720.22955	-789.65448	1157.35400	551.32104	-905.35107	1292.07751	759.56781	-1084.54248	937.99896	577.94006	-615.89490	1019.88312	839.40906	-929.39917	852.76550	419.79227	-538.15454	775.07800	788.76337				-691.80511	877.71735	595.31659	-917.58746	902.08221	838.92334	-968.00317	467.25287	534.96326	-639.77875	450.09723	696.79730	-944.06891	87.63309	551.84442				
285	2.840	-730.48157	1342.29883	433.57318	-871.49860	1515.79810	646.28595	-907.42365	1424.47559	507.52963	-688.50256	1408.69128	565.10522	-1028.50378	1259.81873	575.88232	-671.78784	1275.49170	714.44373	-787.49097	1156.80505	544.83057	-905.26697	1292.38354	751.56641	-1082.39172	938.42773	565.38708	-615.37878	1020.51605	834.11322	-925.63989	853.70410	409.25305	-536.93591	775.99567	786.43286	-864.49274	876.01849	489.52457	-690.08282	877.93335	588.95581	-918.78693	901.73224	830.81458	-968.77777	465.43613	529.72174	-634.07538	453.89355	680.87946	-943.75275	87.41804	552.05804				
286	2.850	-728.73785	1342.69543	426.16400	-871.54272	1517.03186	638.51306	-906.04358	1424.56982	499.46201	-687.14124	1409.11816	559.06158	-1026.44080	1260.49402	566.92999	-670.82635	1275.72107	708.78259	-785.46631	1156.95337	540.13147	-904.54114	1292.87683	742.92365	-1080.94299	939.55438	552.89081	-615.17969	1021.10352	828.92883	-921.41254	854.93463	398.39948	-535.01703	776.81464	784.59943	-864.65137	874.58899	482.87878	-688.03485	878.60596	582.18176	-920.47046	902.48810	822.27100	-970.49744	464.31546	524.86835	-628.94293	457.59491	666.51593	-943.51904	87.62344	552.80975				
287	2.860	-726.53571	1342.60999	420.06326	-867.85248	1516.20630	628.83990	-904.60864	1424.64282	491.93857	-688.28137	1407.88037	545.49976	-1023.89508	1261.35376	557.93677	-670.28326	1275.83459	703.09113	-782.73853	1157.65015	533.09180	-904.25916	1293.66736	735.34692	-1078.48254	939.87970	541.07135	-614.85938	1021.70514	823.08533	-917.90186	856.58557	387.37183	-534.08698	777.47131	782.96686	-861.44342	875.87695	475.62671	-686.11707	878.47778	576.03436	-921.10297	902.18884	814.54498	-971.47656	461.37149	520.86548	-624.30872	460.45068	653.38934	-943.47528	88.21809	553.52051				
288	2.870	-724.41229	1342.74133	413.44778	-866.55212	1517.06311	620.88037	-902.99805	1425.13208	484.32227	-684.05481	1410.46985	544.77124	-1021.89868	1262.74683	549.54578	-669.67609	1276.56458	697.73987	-780.73743	1158.24475	527.14685	-903.54962	1294.23596	727.43561	-1075.97327	940.98828	528.77820	-614.17590	1022.25000	818.71368	-913.30029	857.87506	377.08969	-532.59253	778.92841	780.51514	-860.89893	873.68420	470.53632	-684.31360	878.72156	570.50397	-922.36432	903.54858	806.06366	-972.52802	460.00604	517.49316	-619.29590	464.01913	639.56293	-943.84790	88.35271	555.00000				
289	2.880	-721.71698	1342.92810	407.14188	-864.76514	1517.63464	612.94714	-900.96014	1425.48462	476.44736	-682.05084	1410.67603	538.38916	-1019.95581	1264.43127	540.62952	-668.72363	1277.32825	692.37299	-778.09167	1158.47681	520.34155	-902.66388	1294.70105	719.64447	-1073.63574	941.96777	516.41748	-614.43018	1022.83667	814.91785	-908.55139	859.81427	365.79971	-531.62872	779.55652	778.06470	-857.43256	875.82678	464.31100	-682.81891	878.81189	564.58698	-921.75031	903.23206	798.71149	-973.78638	458.30688	513.81049	-614.42017	467.55563	626.93823							
290	2.890	-719.64728	1343.13635	400.60300	-862.96173	1518.53491	605.04260	-898.75708	1426.03088	469.01212	-680.09167	1411.50525	531.85638	-1017.54388	1264.66260	532.24554	-668.11853	1277.55090	686.40576				-902.37158	1296.17175	712.14893	-1070.03076	942.41223	504.06531	-615.55872	1023.23578	810.20276	-904.68542	862.58252	354.13550	-530.27972	780.61859	776.00916	-854.60760	876.71484	456.27621	-681.61688	879.27673	558.74109	-924.86182	905.97675	792.29126	-973.33179	457.70898	513.33270	-609.81848	471.30365	614.67700	-944.10315	87.91528	555.66382				
291	2.900	-717.26697	1343.54602	393.35794	-861.14001	1519.50537	597.56543	-896.45825	1426.88647	461.25208	-680.79352	1410.43835	519.53613	-1015.30872	1265.87378	524.72546	-666.69067	1278.26526	681.21051	-773.56403	1159.52979	507.58795	-901.30463	1296.89111	704.61945	-1066.68640	943.78345	491.21176	-617.14044	1024.16650	805.50183	-899.86481	864.34821	343.87064	-529.18463	782.56818	774.07996				-680.90491	879.16437	554.79608	-923.80481	906.29999	785.01947	-973.05359	457.50134	512.29260	-605.67493	474.83908	602.66705	-943.72272	88.30086	555.67938				
292	2.910	-714.64117	1344.25269	386.73883	-859.01892	1520.43958	589.99347	-893.81122	1427.35767	453.59109	-678.74103	1410.86438	512.82983	-1014.11444	1267.62537	515.43274	-666.01300	1278.99280	676.13782	-771.60870	1160.31592	501.97379	-899.57867	1297.82788	696.87659	-1063.17517	944.58698	479.34338	-618.14410	1024.84839	800.80188	-895.44940	866.92261	331.56992	-529.98328	783.59863	771.10364				-678.69873	879.93671	548.05121	-922.37146	907.69281	777.70520	-971.95520	457.02832	511.81766	-602.14960	479.18246	591.97198	-943.56189	88.73116	556.17816				
293	2.920	-711.84595	1344.38440	380.35211	-857.19568	1521.79016	582.84735	-891.19592	1428.34375	446.19098	-676.39307	1411.70569	505.10794	-1012.03986	1268.80786	507.36563	-664.70117	1279.64368	670.27039	-769.24329	1161.02136	496.06244	-898.60291	1298.60913	689.64923	-1058.90186	946.82947	467.25589	-619.50812	1026.02148	796.81775	-888.92346	867.84381	322.08069	-529.27863	784.49274	768.80194				-677.36652	880.61224	543.18439	-920.59534	908.41766	770.56610	-971.70868	456.54651	509.33121	-599.15460	483.67892	581.18842	-943.85229	88.96173	556.75470				
